PathFileType	4	(X/Y/Z)	./resultDataOpenSim/trcMotMarkerGrf/sub10/qtm-15-05.trc
DataRate	CameraRate	NumFrames	NumMarkers	Units	OrigDataRate	OrigDataStartFrame	OrigNumFrames
250.000000	250.000000	7	24	m	250.000000	439	501
Frame#	Time	L.Toe.Tip			R.Toe.Tip			L.Ankle.Lat			R.Ankle.Lat			L.Ankle.Med			R.Ankle.Med			L.Heel			R.Heel			L.Knee.Lat			R.Knee.Lat			L.Knee.Med			R.Knee.Med			L.Thigh.Upper			R.Thigh.Upper			L.ASIS			R.ASIS			V.Sacral			L.Acromium			R.Acromium			C7			L.Elbow			R.Elbow			L.Wrist.Lat			R.Wrist.Lat
		X1	Y1	Z1	X2	Y2	Z2	X3	Y3	Z3	X4	Y4	Z4	X5	Y5	Z5	X6	Y6	Z6	X7	Y7	Z7	X8	Y8	Z8	X9	Y9	Z9	X10	Y10	Z10	X11	Y11	Z11	X12	Y12	Z12	X13	Y13	Z13	X14	Y14	Z14	X15	Y15	Z15	X16	Y16	Z16	X17	Y17	Z17	X18	Y18	Z18	X19	Y19	Z19	X20	Y20	Z20	X21	Y21	Z21	X22	Y22	Z22	X23	Y23	Z23	X24	Y24	Z24

439	1.752	1.6691665	0.061052269	-0.22754631	0.8351058	0.038908683	-0.040447585	1.5376602	0.06805519	-0.26973651	0.73575175	0.13481881	-0.0051556833	1.5373934	0.088928531	-0.18566686	0.77059962	0.14102023	-0.088108864	1.475018	0.029301065	-0.23257724	0.68239814	0.14315185	-0.053168029	1.4539191	0.45266554	-0.27143856	1.0245179	0.41632544	0.017854878	1.464787	0.42116257	-0.15290707	1.0585523	0.40160877	-0.10343126	1.2928015	0.79814358	-0.30972797	1.1475568	0.79946248	0.057764107	1.3141128	0.90178274	-0.22251542	1.2445761	0.88999835	0.020990189	1.0868988	0.89659925	-0.17124609	1.1809349	1.3571008	-0.28334457	1.1839313	1.3549245	0.043075474	1.1001091	1.3839787	-0.12668794	1.0430334	1.0401692	-0.32259571	1.2089956	0.99121553	0.088840459	1.1124944	0.84120097	-0.44830305	1.4309179	0.9252708	3.6614902e-05
440	1.756	1.6705073	0.058259946	-0.226831	0.83596849	0.038713017	-0.04076091	1.5391882	0.067881563	-0.26985453	0.74008991	0.13802848	-0.005361717	1.5389576	0.0888638	-0.18572789	0.77584499	0.14305045	-0.087920955	1.4757899	0.030200758	-0.23317586	0.68764947	0.14760096	-0.053886596	1.4614724	0.45418761	-0.27135474	1.0319749	0.41617138	0.017174759	1.4707724	0.42242244	-0.15273176	1.066371	0.40078024	-0.10340678	1.299677	0.79925381	-0.31074052	1.1553929	0.79868899	0.056918774	1.3204533	0.90225651	-0.22364505	1.2517239	0.88967915	0.019854141	1.0935917	0.89695749	-0.17168395	1.1868341	1.3570081	-0.28483645	1.1906965	1.3553386	0.041644134	1.1065172	1.3842073	-0.12804099	1.0493433	1.0398259	-0.32375397	1.2147601	0.99154116	0.086732327	1.1192318	0.84095475	-0.44941001	1.4363552	0.9241108	-0.0018491391
441	1.76	1.6718126	0.055599139	-0.22621087	0.83691868	0.038522329	-0.041083826	1.5406689	0.06765039	-0.27001452	0.74472548	0.14123587	-0.0056296961	1.5406427	0.088887159	-0.18577409	0.78143689	0.14497854	-0.087692857	1.4765839	0.031023342	-0.23365754	0.69333918	0.15207363	-0.054852047	1.4689615	0.45568529	-0.27123949	1.0394683	0.41608238	0.016554031	1.4769544	0.42377941	-0.1524235	1.07444	0.3998955	-0.10331896	1.3064723	0.80046801	-0.31175508	1.1630566	0.79787812	0.056117076	1.3268654	0.90281199	-0.22472655	1.258865	0.88937384	0.018679706	1.1002279	0.8974685	-0.17212816	1.1927523	1.3569303	-0.28629165	1.1975021	1.3557941	0.040197361	1.1129391	1.3844655	-0.12935901	1.0556949	1.0395268	-0.32492112	1.2204287	0.99192458	0.084629564	1.1260262	0.84074095	-0.45051503	1.4417519	0.92291906	-0.0036534957
442	1.764	1.6731963	0.053134361	-0.2256922	0.83799192	0.038353661	-0.04137012	1.5421412	0.067372087	-0.27018333	0.74966522	0.14444238	-0.0059300919	1.5426598	0.089024173	-0.18573192	0.7873508	0.14680255	-0.087406129	1.4774229	0.031784256	-0.23405268	0.69944064	0.15653977	-0.0560272	1.476311	0.45711071	-0.27110461	1.0471587	0.4160286	0.016087972	1.483137	0.42519022	-0.15209901	1.0827557	0.39893721	-0.10317251	1.3131888	0.80175329	-0.31277415	1.1704973	0.79703175	0.055348282	1.3333376	0.9034678	-0.22571416	1.266001	0.88907843	0.017463291	1.1068967	0.89808001	-0.17243048	1.1986874	1.3568629	-0.28770877	1.2043429	1.3562801	0.03873272	1.1193431	1.3847382	-0.13063083	1.062098	1.0392464	-0.32607302	1.2260317	0.99235135	0.082556129	1.1328828	0.84055405	-0.45161523	1.447116	0.9216971	-0.005385767
443	1.768	1.6747608	0.05089217	-0.22533486	0.83920138	0.038205494	-0.04160642	1.5436182	0.06710622	-0.27025179	0.75491584	0.147624	-0.0062578347	1.5450185	0.089241794	-0.18554199	0.79356597	0.14852473	-0.087085859	1.4782937	0.032477256	-0.23433247	0.70591319	0.16093765	-0.057291699	1.4834428	0.45841933	-0.27095639	1.0551242	0.41596737	0.015788502	1.4892283	0.42659817	-0.1518265	1.0913114	0.39788753	-0.10296998	1.3198322	0.8030766	-0.31379345	1.177826	0.79614899	0.054602337	1.3398519	0.90424041	-0.22659452	1.2731245	0.8887976	0.016204185	1.1136258	0.89872611	-0.17261084	1.204636	1.3568092	-0.28909798	1.2112136	1.3567773	0.037249292	1.1257075	1.3850169	-0.13185912	1.0685539	1.0389641	-0.32719109	1.2316271	0.99281117	0.080529907	1.1397996	0.84038569	-0.45271047	1.4524385	0.92044368	-0.0070531227
444	1.772	1.6765111	0.048891213	-0.22517539	0.84053766	0.038060702	-0.041814588	1.5450605	0.06689895	-0.27012174	0.76047262	0.15074795	-0.0066131795	1.5473864	0.089415075	-0.18519922	0.80007877	0.15012797	-0.086739525	1.4791484	0.033071409	-0.23442656	0.71270927	0.16521158	-0.058510012	1.4903086	0.45956413	-0.27080928	1.0633427	0.4158731	0.01560614	1.4951745	0.42791613	-0.15164052	1.1000996	0.39673464	-0.10270639	1.3264052	0.80440568	-0.31480328	1.1852224	0.79523025	0.05389523	1.3463932	0.90513097	-0.22740834	1.28022	0.88853831	0.014904684	1.1205082	0.89924014	-0.17276036	1.2105977	1.3567728	-0.29046628	1.2180966	1.3572727	0.035751184	1.1320248	1.3852942	-0.13305452	1.0750538	1.0386726	-0.32827636	1.2372174	0.99329962	0.078554152	1.1467675	0.84022918	-0.453807	1.4576884	0.91915327	-0.0086541723
445	1.776	1.6783162	0.047155671	-0.22513813	0.84198431	0.037900785	-0.042022582	1.5463842	0.066748658	-0.26978549	0.76630652	0.15378949	-0.0069663396	1.5493581	0.089420647	-0.18474468	0.80689071	0.15156976	-0.086312765	1.4799267	0.03353137	-0.23429065	0.7197714	0.16934242	-0.059617072	1.4969195	0.46049632	-0.27069716	1.0717518	0.41574689	0.015490109	1.5009135	0.42902276	-0.15156067	1.1091067	0.39547042	-0.10236843	1.3329161	0.80570947	-0.31579437	1.19283	0.79428493	0.053270762	1.3529453	0.90611062	-0.22821653	1.2872677	0.8882991	0.013568127	1.127736	0.89936556	-0.17301012	1.2165722	1.3567505	-0.2918101	1.2249621	1.3577692	0.034248356	1.1382966	1.3855621	-0.13422118	1.0815842	1.0383749	-0.32934576	1.2426428	0.99382375	0.076603157	1.1537759	0.84008203	-0.45490778	1.4628355	0.91781924	-0.010184061
